<svg id="Capa_1" data-name="Capa 1" xmlns="http://www.w3.org/2000/svg" viewBox="0 0 595.28 841.89"><defs>
    
    <style>.cls-1,.cls-2,.cls-3{fill:none;stroke:#1d1d1b;stroke-miterlimit:10;}.cls-2{stroke-width:0.94px;}.cls-3{stroke-width:0.8px;}
        
        .animacio {
            stroke-dasharray: 700;
            stroke-dashoffset: 700;
            animation: caca 3s linear normal infinite;
        }
        
        @keyframes caca {
            from {
                stroke-dashoffset:700;
            }
            to{
                stroke-dashoffset:0;
            }
        }
        
        
        
    </style>
    </defs>
    <title>lineal</title>
    <g class="animacio">
    <path class="cls-1" d="M274.75,177s-68,30.5-87.5,98.5c0,0-4.5,28-4,40l0,40.77A79.86,79.86,0,0,0,185.43,375c2.47,10.24,6.36,25.73,8.32,30,3,6.5,6.5,21,27,42.5,0,0,22,24.5,29,34,5.36,7.27,23.56,13.66,31.82,16.26a31.35,31.35,0,0,0,8.14,1.43c5.59.23,15.39.51,18.55-.19,4.18-.93,11.38-1,20-7,1.49-1,3-2.07,4.55-3,7.05-4.31,27.33-17.23,42.15-32a85.8,85.8,0,0,1,8.44-7.44,86.3,86.3,0,0,0,15.36-15.08,32.51,32.51,0,0,0,7-16c1-6.41,4-23.09,6-34.24a121.24,121.24,0,0,0,2-21.84V307s-3.5-25.5-15.5-40.5c0,0-26.5-40.5-31.5-45s-23-31.5-38.5-35C328.25,186.5,303.25,172,274.75,177Z"/><path class="cls-1" d="M109.75,515l30.5-170.5c23.5-116,43-147.5,43-147.5,17-51.5,62-52,62-52s22-2,31,5c0,0,4.5-10.5,16-10s51-5,83,25.5,46,67,46,67,17,53,22,78.5,29,204,29,204"/><path class="cls-1" d="M263.92,430.83s17.17-9,22.5-11c0,0,7.89-4.51,11.67-2,4.75,3.17,11.67-1.23,11.67-1.23s1.67-1.9,8.33,0,23.67,11.07,23.67,11.07-18.83,14.17-24,14.83S295.42,445.33,291,444,269.25,438,263.92,430.83Z"/><path class="cls-1" d="M263.92,431.26s32.72-6.09,77.17-3"/><path class="cls-1" d="M287.08,331.67v27.67s1.33,4.67-4.33,9-8.33,14-8.33,14,1.67,5.67,8.67,5.33,12.33,4.67,12.33,4.67,5.67,2,10.67,0,4.33-5,10-5.67,11.33-6,8.67-14c0,0-4.33-4.67-6.67-5.67s-2.33-11.36-2.33-11.36l-1-24"/><line class="cls-1" x1="295.08" y1="401" x2="295.08" y2="410.33"/><path class="cls-1" d="M304.42,402.67s.33,7.79,2.67,9.67"/><path class="cls-1" d="M285.75,463s11.33-7.67,30-2"/><circle class="cls-2" cx="233.12" cy="328.36" r="10.57"/><circle class="cls-2" cx="357.08" cy="317.98" r="11"/><path class="cls-2" d="M205.5,319.67s-1.75,8.73,2.09,9"/><path class="cls-2" d="M214.75,316s-3.67,5.16,0,7.08"/><path class="cls-2" d="M222.56,313.67s-2.78,4.18,0,5.87"/><path class="cls-2" d="M251.42,317.79s-23.65-11-45.92,5.29"/><path class="cls-2" d="M267.06,329.86s-4.31,6.2-7,7.84"/><line class="cls-2" x1="206.34" y1="337.7" x2="212.08" y2="339.41"/><path class="cls-2" d="M322.42,327.45s5,7.21,9.33,8.88"/><path class="cls-2" d="M382.5,319.67s.92,4-7.75,8.69"/><path class="cls-2" d="M384.75,304.67s.78,2.7-6.11,6.18"/><path class="cls-2" d="M374.75,301.67s.19,4.87-2.07,7.27"/><path class="cls-2" d="M368.08,301.67s1.32,1.75-3.34,5.71"/><path class="cls-2" d="M333.42,310.85s21.11-13.33,45.22-3.09"/><path class="cls-3" d="M220.75,447.5s10.42,34.5,7.71,78.5"/><path class="cls-3" d="M383.39,449.58S366.67,512,381.71,532"/><path class="cls-1" d="M263.57,293.67s-17.18-7.86-33.89-3.19l-24.58,7.19"/><path class="cls-1" d="M322.42,287.33S339.06,277.67,356,279a133.57,133.57,0,0,1,30.31,6"/><path class="cls-1" d="M205.1,331s8.81-12.65,28-13,30.45,8,30.45,8"/><path class="cls-1" d="M213.94,336.33s15.73,8.56,44.4-2.56"/><path class="cls-2" d="M327.08,322.33s21.25-27,55.44-10"/><path class="cls-2" d="M381.71,318s-12.54,17.25-50,9.46"/> </g></svg>